<?xml version="1.0" encoding="iso-8859-1"?>
<!-- Generator: Adobe Illustrator 19.0.0, SVG Export Plug-In . SVG Version: 6.00 Build 0)  -->
<svg version="1.1" id="Capa_1" xmlns="http://www.w3.org/2000/svg" xmlns:xlink="http://www.w3.org/1999/xlink" x="0px" y="0px"
	 viewBox="0 0 512 512" style="enable-background:new 0 0 512 512;" xml:space="preserve">
<path style="fill:#2E86FD;" d="M256,0C114.516,0,0,114.497,0,256c0,141.484,114.497,256,256,256c141.483,0,256-114.497,256-256
	C512,114.516,397.503,0,256,0z"/>
<path style="fill:#2962E0;" d="M256,0v512c141.483,0,256-114.497,256-256C512,114.516,397.503,0,256,0z"/>
<g>
	<path style="fill:#AAF3FE;" d="M435.858,281.37c-8.077-1.828-16.112,3.237-17.942,11.317
		c-5.782,25.537-17.727,49.423-34.487,69.529l-21.298-21.298C381.006,317.319,392,287.577,392,256
		c0-20.643-4.53-40.488-13.466-58.984c-3.604-7.459-12.571-10.583-20.032-6.981c-7.459,3.604-10.585,12.572-6.981,20.032
		c4.763,9.859,7.917,20.216,9.431,30.933h-30.445c-6.984-34.747-37.734-61-74.506-61c-41.907,0-76,34.093-76,76s34.093,76,76,76
		c36.772,0,67.522-26.253,74.506-61h30.406c-5.547,38.684-32.224,71.826-69.883,85.054c-7.815,2.746-11.926,11.308-9.181,19.124
		c2.746,7.816,11.308,11.926,19.124,9.181c14.764-5.186,28.2-12.775,39.964-22.209l21.296,21.296
		C332.358,408.398,294.531,422,256,422c-91.533,0-166-74.467-166-166c0-31.412,8.854-62.008,25.604-88.482
		c4.43-7.001,2.345-16.267-4.656-20.696s-16.266-2.345-20.696,4.656C70.461,182.758,60,218.901,60,256c0,108.075,87.925,196,196,196
		c91.688,0,171.091-63.994,191.176-152.688C449.005,291.233,443.938,283.2,435.858,281.37z M256,302c-25.364,0-46-20.636-46-46
		s20.636-46,46-46s46,20.636,46,46S281.364,302,256,302z"/>
	<path style="fill:#AAF3FE;" d="M120,256c0,57.65,36.581,109.233,91.027,128.358c7.817,2.745,16.378-1.366,19.124-9.181
		c2.746-7.816-1.365-16.378-9.181-19.124C178.521,341.143,150,300.934,150,256c0-58.449,47.551-106,106-106
		c16.086,0,31.54,3.526,45.935,10.479c7.46,3.605,16.428,0.478,20.031-6.981s0.478-16.428-6.982-20.031
		c-13.971-6.749-28.711-10.981-43.983-12.65V90.694c72.291,6.631,131.243,59.4,146.917,128.622
		c1.827,8.067,9.846,13.148,17.942,11.317c8.08-1.83,13.146-9.863,11.317-17.942C427.402,125.355,349.097,60,256,60
		c-37.099,0-73.243,10.461-104.523,30.252c-7,4.429-9.085,13.695-4.656,20.696s13.697,9.086,20.696,4.656
		c22.238-14.07,47.388-22.543,73.483-24.903v30.13C173.042,128.322,120,186.079,120,256z"/>
</g>
<g>
	<path style="fill:#8DDCF7;" d="M435.858,281.37c-8.077-1.828-16.112,3.237-17.942,11.317
		c-5.782,25.537-17.727,49.423-34.487,69.529l-21.298-21.298C381.006,317.319,392,287.577,392,256
		c0-20.643-4.53-40.488-13.466-58.984c-3.604-7.459-12.571-10.583-20.032-6.981c-7.459,3.604-10.585,12.572-6.981,20.032
		c4.763,9.859,7.917,20.216,9.431,30.933h-30.445c-6.984-34.747-37.734-61-74.506-61v30c25.364,0,46,20.636,46,46s-20.636,46-46,46
		v30c36.772,0,67.522-26.253,74.506-61h30.406c-5.547,38.684-32.224,71.826-69.883,85.054c-7.815,2.746-11.926,11.308-9.181,19.124
		c2.746,7.816,11.308,11.927,19.124,9.181c14.764-5.186,28.2-12.775,39.964-22.209l21.296,21.296
		C332.358,408.398,294.531,422,256,422v30c91.688,0,171.091-63.994,191.176-152.688C449.005,291.233,443.938,283.2,435.858,281.37z"
		/>
	<path style="fill:#8DDCF7;" d="M447.177,212.691C427.402,125.355,349.097,60,256,60v90c16.086,0,31.54,3.526,45.935,10.479
		c7.46,3.605,16.428,0.478,20.031-6.981s0.478-16.428-6.982-20.031c-13.971-6.749-28.711-10.981-43.983-12.65V90.694
		c72.291,6.631,131.243,59.4,146.917,128.622c1.827,8.067,9.845,13.148,17.942,11.317
		C443.939,228.804,449.006,220.771,447.177,212.691z"/>
</g>
<g>
</g>
<g>
</g>
<g>
</g>
<g>
</g>
<g>
</g>
<g>
</g>
<g>
</g>
<g>
</g>
<g>
</g>
<g>
</g>
<g>
</g>
<g>
</g>
<g>
</g>
<g>
</g>
<g>
</g>
</svg>
